# xmcd
# Copyright (C) 1995-1998 Ti Kan
#
# Track frame offsets:
#       150
#       9974
#       22647
#       32752
#       58945
#       75888
#       94492
#       121282
#       130230
#       154450
#       181039
#       189515
#       204944
#       235869
#       249105
#
# Disc length: 3917 seconds
#
# Revision: 0
# Processed by: cddbd v1.5.2PL0 Copyright (c) Steve Scherf et al.
# Submitted via: CD-Import v1.0
#
DISCID=ad0f4b0f
DTITLE=Fil The Shrill - Drum and Bass
DYEAR=1999
DGENRE=
TTITLE0=Drum and Bass
TTITLE1=Gagarin
TTITLE2=Charley Brown
TTITLE3=Magnums Son
TTITLE4=Jazz(Take Five)
TTITLE5=Susan
TTITLE6=Rock N Roll
TTITLE7=Metal In His Hands
TTITLE8=Love-Parader
TTITLE9=Kurzer Erklärender Text
TTITLE10=Die Kleinen Leute
TTITLE11=Brich Mir Nich Das Herz
TTITLE12=Kurzer Erklärender Text
TTITLE13=Am Leben Bleiben (Staying Alive)
TTITLE14=Sharkey and Fil - Zwei Die Sich Verstehen
EXTD=
EXTT0=
EXTT1=
EXTT2=
EXTT3=
EXTT4=
EXTT5=
EXTT6=
EXTT7=
EXTT8=
EXTT9=
EXTT10=
EXTT11=
EXTT12=
EXTT13=
EXTT14=
PLAYORDER=
